<svg id="Icon" xmlns="http://www.w3.org/2000/svg" viewBox="0 0 800 800"><defs><style>.cls-1{fill:#4a4a4a;}</style></defs><path class="cls-1" d="M730.582,710.38c-33.346-36.265-82.876-56.417-130.768-75.9l-.4-.162c76.3-176.336,41.112-401.228-40.857-502.8-35.018-43.391-76.085-61.981-118.815-53.828C374.482,60.793,304.312,83.1,251.558,137.7c-46.173,47.79-142.858,191.5-49.726,495.891-.7.287-1.389.571-2.093.859-47.674,19.5-96.965,39.668-130.32,75.923a10.417,10.417,0,0,0,15.33,14.109c30.212-32.842,77.321-52.114,122.879-70.75C269,628.62,332.127,602.621,342.279,542.39c17.5,9.13,37.91,14.769,61.785,14.8h.178a117.121,117.121,0,0,0,53.745-12.807c10.287,58.891,73,84.579,133.974,109.39,45.771,18.62,93.1,37.877,123.291,70.7a10.414,10.414,0,0,0,15.33-14.1ZM404.237,536.358H404.1c-114.228-.152-139.135-152.7-139.374-154.246a10.423,10.423,0,0,0-10.3-8.835H254.4c-2.894,0-6.775-3.6-10.122-9.384-9.806-16.932-13.768-49.509-4.186-66.126,3.393-5.89,7.95-8.632,14.333-8.632a10.479,10.479,0,0,0,2.61-.33c4.542-1.18,106.765-28.4,174.606-108.322C444.2,203.473,473.965,247.54,532.96,285.86a10.755,10.755,0,0,0,6.434,1.658c5.931-.458,23.962-1.75,27.909,26.011,4.14,29.19-11.322,64.677-25.33,67.653a10.425,10.425,0,0,0-8.082,8.285C533.621,390.937,505.357,536.374,404.237,536.358Zm73.262-4.329c18.073-13.831,34.061-33.2,47.491-57.932,16.973-31.255,25.208-62.179,28.122-74.869,24.536-11.689,39.49-55.69,34.816-88.629-3.988-28.1-21-43.869-46.372-44.021-74.254-49.3-97.783-108.663-98.007-109.243a10.418,10.418,0,0,0-18.087-2.523C366.136,234.407,264.68,265,252.921,268.327c-13.128.479-24.048,7.192-30.874,19.033-13.779,23.89-8.952,64.26,4.2,86.975,5.3,9.156,11.948,15.361,19.267,18.128,4.933,23.241,24.3,97.008,77.206,137.487-2.753,49.019-46.765,72.608-101.539,95.637-88.909-292.452,1.85-428.376,45.36-473.409,48.024-49.719,111.618-69.809,170.115-53.757a10.344,10.344,0,0,0,4.939.142c44.81-9.638,79.523,19.735,100.748,46.036,95.154,117.905,96.028,346.385,37.8,481.8C524.981,603.443,480.384,580.232,477.5,532.029Z"/><path class="cls-1" d="M682.588,348.64a10.417,10.417,0,0,0-10.417,10.416v14.913a10.417,10.417,0,0,0,20.834,0V359.056A10.417,10.417,0,0,0,682.588,348.64Z"/><path class="cls-1" d="M682.588,318.58a10.417,10.417,0,0,0,10.417-10.417V292.625a10.417,10.417,0,0,0-20.834,0v15.538A10.417,10.417,0,0,0,682.588,318.58Z"/><path class="cls-1" d="M687.171,333.294a10.417,10.417,0,0,0,10.416,10.417H712.5a10.417,10.417,0,1,0,0-20.833H697.587A10.417,10.417,0,0,0,687.171,333.294Z"/><path class="cls-1" d="M652.681,343.711h15.538a10.417,10.417,0,1,0,0-20.833H652.681a10.417,10.417,0,1,0,0,20.833Z"/><path class="cls-1" d="M142.32,226.554V211.641a10.417,10.417,0,1,0-20.833,0v14.913a10.417,10.417,0,1,0,20.833,0Z"/><path class="cls-1" d="M131.9,171.165a10.417,10.417,0,0,0,10.417-10.417V145.209a10.417,10.417,0,0,0-20.833,0v15.539A10.417,10.417,0,0,0,131.9,171.165Z"/><path class="cls-1" d="M136.486,185.879A10.417,10.417,0,0,0,146.9,196.3h14.913a10.417,10.417,0,0,0,0-20.833H146.9A10.417,10.417,0,0,0,136.486,185.879Z"/><path class="cls-1" d="M101.991,196.3h15.544a10.417,10.417,0,0,0,0-20.833H101.991a10.417,10.417,0,1,0,0,20.833Z"/><path class="cls-1" d="M107.118,569.17v14.913a10.417,10.417,0,0,0,20.833,0V569.17a10.417,10.417,0,1,0-20.833,0Z"/><path class="cls-1" d="M107.118,502.738v15.539a10.417,10.417,0,0,0,20.833,0V502.738a10.417,10.417,0,1,0-20.833,0Z"/><path class="cls-1" d="M147.442,553.83a10.417,10.417,0,0,0,0-20.834H132.534a10.417,10.417,0,1,0,0,20.834Z"/><path class="cls-1" d="M87.622,553.83h15.539a10.417,10.417,0,0,0,0-20.834H87.622a10.417,10.417,0,0,0,0,20.834Z"/><path class="cls-1" d="M418.87,454.444c-15,10.93-35.863-.519-36.077-.646A10.416,10.416,0,0,0,372.5,471.91c.859.494,14.491,8.118,31.072,8.118a45.922,45.922,0,0,0,27.557-8.738,10.417,10.417,0,0,0-12.258-16.846Z"/></svg>